<?xml version="1.0" encoding="utf-8"?>
<!-- Generator: Adobe Illustrator 24.2.3, SVG Export Plug-In . SVG Version: 6.00 Build 0)  -->
<svg version="1.1" id="Layer_1" xmlns="http://www.w3.org/2000/svg" xmlns:xlink="http://www.w3.org/1999/xlink" x="0px" y="0px"
	 viewBox="0 0 890 700" style="enable-background:new 0 0 890 700;" xml:space="preserve">
<style type="text/css">
	.st0{fill:none;}
	.st1{fill:#EFF1F7;}
	.st2{fill:#2F89FC;}
	.st3{fill:#87A0F9;}
	.st4{fill:#CFD1D6;}
	.st5{fill:#00297A;}
	.st6{fill:#DD7C1B;}
	.st7{fill:#F3F6FF;}
	.st8{fill:#EF8B30;}
	.st9{fill:#FFAC61;}
	.st10{fill:#666666;}
	.st11{fill:#3D3D3D;}
	.st12{fill:#FAAEB1;}
	.st13{fill:#FAC8CA;}
	.st14{fill:#A6B9FF;}
	.st15{fill:#626262;}
	.st16{fill:#FF85A1;}
	.st17{fill:#BDCAF9;}
	.st18{fill:#9CB0E6;}
	.st19{fill:#8A8A8A;}
	.st20{fill:#FFFFFF;}
	.st21{fill:#F7F8FB;}
	.st22{fill:#C3D0FC;}
	.st23{fill:#FDD7D8;}
	.st24{fill:#FDE4E5;}
	.st25{fill:#5579F9;}
	.st26{fill:#C6D7FC;}
	.st27{fill:#CABDE0;}
	.st28{fill:#9EBDFC;}
	.st29{fill:#A2A8E6;}
	.st30{fill:#B4B6BA;}
	.st31{fill:#FFF3E4;}
	.st32{fill:#F9C78C;}
</style>
<g>
	<rect id="canvas_background" x="-1" y="-1" class="st0" width="892" height="702"/>
</g>
<path id="path476" class="st1" d="M386.1,473.1c-86.8,3.4-174.5-20.5-247.6-67.5c-26.2-16.8-51.4-37.7-63.7-66.2
	c-12.4-28.8-10-61.9-1.8-92.2c11.4-42.1,36.4-83.6,76.6-100.3c29.7-12.4,62-9.5,94.6-6.6c18.5,1.6,37,3.2,55.2,2.1
	C392.2,136.4,465,60.5,554,33.6c67.6-20.4,145-9.8,201.7,32.3c56.8,42,89.9,115.7,78.8,185.5c-6,38-23.9,73.2-32.3,110.7
	c-6.6,29.7-7.2,61.1-19.3,89c-22.6,52.3-81,81.1-137.6,87.9c-72.3,8.6-147.7-12.6-204.8-57.8L386.1,473.1"/>
<path id="path478" class="st1" d="M6.8,624.3c-0.3,17.4,21.1,25.4,38.2,28.6c112.3,20.8,225.3,41.6,339.5,42.9
	c93.5,1,186.6-11.2,279.4-23.3c56.7-7.4,113.4-14.8,170.1-22.3c23.4-3.1,52.9-12.5,53.6-36.1c0.4-13.3-10.1-24.9-22.4-30.1
	c-12.2-5.2-25.9-5.3-39.2-5.4c-218.9-0.8-438.9-8.7-657.5,3.5C139.9,583.8,6.8,579.2,6.8,624.3"/>
<path id="path480" class="st2" d="M803.6,434.3H529.8v-10.7h273.8V434.3"/>
<path id="path482" class="st2" d="M553.3,615.2h-7V434.3h7V615.2"/>
<path id="path484" class="st3" d="M553.3,615.2h-7v-18.7h7V615.2"/>
<path id="path486" class="st2" d="M785.4,615.2h-7V434.3h7V615.2"/>
<path id="path488" class="st3" d="M785.4,615.2h-7v-18.7h7V615.2"/>
<path id="path490" class="st4" d="M764.9,391.8H584.2c-2.9,0-5.3-2.4-5.3-5.3V273c0-2.9,2.4-5.3,5.3-5.3h180.8
	c2.9,0,5.3,2.4,5.3,5.3v113.4C770.3,389.4,767.9,391.8,764.9,391.8"/>
<path id="path492" class="st2" d="M586.8,372.4v-94c0-1.5,1.2-2.7,2.7-2.7h170.1c1.5,0,2.7,1.2,2.7,2.7v94c0,1.5-1.2,2.7-2.7,2.7
	H589.5C588,375,586.8,373.8,586.8,372.4"/>
<path id="path494" class="st4" d="M698.9,417.6h-48.8l5.3-25.8h39.5L698.9,417.6"/>
<path id="path496" class="st4" d="M708.5,423.1h-67.8v-1.5c0-2.2,1.8-4,4-4h59.8c2.2,0,4,1.8,4,4V423.1"/>
<path id="path498" class="st5" d="M646.1,311c0,11.7-9.5,21.2-21.2,21.2c-11.7,0-21.2-9.5-21.2-21.2c0-11.7,9.5-21.2,21.2-21.2
	C636.6,289.8,646.1,299.3,646.1,311"/>
<path id="path500" class="st6" d="M624.9,289.8V311h21.2C646.1,299.3,636.6,289.8,624.9,289.8"/>
<path id="path502" class="st7" d="M609.9,326c3.8,3.8,9.1,6.2,15,6.2c11.7,0,21.2-9.5,21.2-21.2h-21.2L609.9,326"/>
<path id="path504" class="st8" d="M834.6,564.4c-2.5-5.6-4.4-11.7-4-17.8c0.4-6.1,3.3-12.4,8.5-15.6c5.1-3.2,11.7-3.3,16.8-6.6
	c2.9-1.9,5.2-4.7,8.1-6.6c2.9-1.9,7.2-2.6,9.7-0.2c2.6,2.5,1.9,7.1-0.4,10c-2.3,2.9-5.7,4.6-8.5,6.8c-8.3,6.5-12.4,18.1-9.9,28.4
	L834.6,564.4"/>
<path id="path506" class="st9" d="M842.8,561.4c-0.3,0-0.5-0.1-0.6-0.4c-2.6-5.4-2.2-12.3,1-17.6c3.2-5.4,8.8-8.8,13.7-11.8
	c0.3-0.2,0.7-0.1,0.9,0.2c0.2,0.3,0.1,0.7-0.2,0.9c-4.8,2.9-10.1,6.3-13.2,11.4c-3,4.9-3.3,11.3-0.9,16.4c0.2,0.3,0,0.7-0.3,0.9
	L842.8,561.4"/>
<path id="path508" class="st8" d="M814.4,563.8c-9-5.7-13.7-17.5-10.9-27.8c1.6-5.8,5.3-11.3,4.5-17.3c-0.4-3.2-2.1-6-3-9.1
	c-1-3-1.2-6.7,1-9.1c2.2-2.4,6.1-2.5,8.9-1c2.8,1.5,4.8,4.3,6.3,7.1c3.9,7.4,5.3,16,4,24.3c-0.8,5.4-2.8,10.6-2.3,16
	c0.5,5.4,3.3,10.4,6.1,15.1L814.4,563.8"/>
<path id="path510" class="st9" d="M818.3,561.2c-0.1,0-0.3,0-0.4-0.1c-6.3-4.9-8.9-13.9-6.3-21.4c0.5-1.4,1.2-2.8,1.8-4.1
	c0.6-1.3,1.3-2.6,1.7-3.9c1.1-3.1,0.9-6-0.4-7.9c-0.2-0.3-0.1-0.7,0.2-0.9c0.3-0.2,0.7-0.1,0.9,0.2c1.6,2.3,1.8,5.6,0.5,9.1
	c-0.5,1.4-1.2,2.8-1.8,4.1c-0.6,1.3-1.3,2.6-1.7,4c-2.4,7,0,15.3,5.9,19.9c0.3,0.2,0.3,0.6,0.1,0.9
	C818.7,561.1,818.5,561.2,818.3,561.2"/>
<path id="path512" class="st6" d="M815.9,558.5c-3.7-1.6-5.1-6.5-3.9-10.4c1.2-3.9,4.2-6.9,7.1-9.8c2.9-2.8,5.9-5.8,7.3-9.6
	c2.6-7.5-2-15.9,0.2-23.5c2-7,9-11.2,15.7-13.8c2.7-1.1,5.6-2,8.6-1.9c2.9,0.1,6,1.4,7.5,4c2.3,4.1-0.1,9.2-3.1,12.9
	c-3,3.6-6.7,7.1-7.4,11.8c-0.6,4.1,1.5,8.1,2.5,12.1c1.7,6.5,0.6,13.7-2.9,19.4c-2.3,3.7-5.4,6.7-8.2,10c-2.7,3.3-5.1,7.2-5.4,11.6
	L815.9,558.5"/>
<path id="path514" class="st9" d="M827.5,561.3c-0.2,0-0.5-0.1-0.6-0.4c-2.3-4.3-2-10,0.9-16.6c0.6-1.5,1.3-2.9,2-4.3
	c1.7-3.5,3.5-7.1,4.1-10.9c0.4-2.3,0.3-4.8,0.3-7.1c0-1.4-0.1-2.9,0-4.3c0.2-4.9,1.6-8.6,4.1-11c0.3-0.2,0.7-0.2,0.9,0
	c0.3,0.3,0.2,0.7,0,0.9c-2.3,2.1-3.5,5.5-3.7,10c-0.1,1.4,0,2.8,0,4.2c0,2.4,0.1,4.9-0.3,7.4c-0.7,4-2.5,7.7-4.2,11.3
	c-0.7,1.4-1.4,2.8-2,4.2c-1.9,4.3-3.6,10.5-1,15.4c0.2,0.3,0.1,0.7-0.3,0.9L827.5,561.3"/>
<path id="path516" class="st2" d="M859,558h-57.3l6.7,57.2h41.3L859,558"/>
<path id="path518" class="st10" d="M219.8,612c0,0,19.2,10.5,28.2,12.4c9,1.9,11.7,7.4,2.7,10.1c-9,2.7-26.5-2.1-36.6-2.1
	c-10.1,0-14.6,2.4-19.1,0.8c-4.5-1.6-0.6-14.2-0.6-14.2L219.8,612"/>
<path id="path520" class="st10" d="M124.9,613.9c0,0,6.6,10.7,12.5,16c5.8,5.3,11.1,10.6-7.7,11.9c-18.8,1.3-30.3-4.2-32.1-8
	c-1.9-3.7,1.4-20,1.4-20H124.9"/>
<path id="path522" class="st11" d="M175.9,249.3c0,0-5.7,7.9-8.8-5.9c-3.1-13.9-14.9-23.7-10.2-35.1c4.7-11.4,13.6-9.6,13.6-9.6
	s0.4-13.2,12.3-13.2c11.8,0,20.4,4.9,27.1,2.6c6.7-2.2,17.1-7.3,19.8-2.6c2.6,4.7-1.8,11.4-4.7,12.4c0,0,9-3.6,8.8,2.7
	c-0.2,6.3-12.2,13.6-24.7,14.7c-12.4,1-27.4,1.6-27.4,1.6L175.9,249.3"/>
<path id="path524" class="st11" d="M230.5,379.6c0,0,0.8,7.6,0,12.9c0,0,5.1,9.8,5.1,26.6S223.1,581.9,219.8,612
	c0,0-11.1,6.5-25.5,6.9c0,0-7.9-67.6-7.9-96.8c0-29.2-2.8-63-2.8-63s-13.2,48.6-28.6,86.6c-15.4,38-30.2,68.2-30.2,68.2
	s-11.1,9.7-25.9,0c0,0,13.9-68.2,18.1-92.2c4.2-24.1,21-121.4,30.8-128.8c0,0-0.8-8,1.1-13.2L230.5,379.6"/>
<path id="path526" class="st12" d="M214.8,207.4c0,0,5,15.1,3.2,29c-1.8,13.9-6.3,24.5-11.9,25.1c-5.6,0.7-26.7-2.7-30.3-16.4
	s-6.1-26.2-4-33.9c2-7.6,15-10.8,20.6-10.8C198.1,200.6,214.8,207.4,214.8,207.4"/>
<path id="path528" class="st12" d="M178.9,242.6c0,0-2.6,4.7-7.8,3c-5.2-1.7-11.2-8.7-7.7-14.5c3.5-5.8,12.3-2,12.3-2L178.9,242.6"
	/>
<path id="path530" class="st11" d="M207.8,244.1c-0.3,0-0.6-0.3-0.7-0.6c0-0.4,0.2-0.7,0.6-0.7c3.9-0.3,6.6-1.2,6.6-1.7
	c-0.3-4.1-6.4-13.5-6.5-13.6c-0.2-0.3-0.1-0.7,0.2-0.9c0.3-0.2,0.7-0.1,0.9,0.2c0.3,0.4,6.4,9.8,6.7,14.2
	C215.8,243.2,210.3,243.9,207.8,244.1L207.8,244.1"/>
<path id="path532" class="st11" d="M202.2,251.8c-2,0-4.2-0.2-6.6-0.9c-0.4-0.1-0.6-0.5-0.5-0.8c0.1-0.4,0.5-0.6,0.8-0.5
	c8.3,2.3,14.5-0.8,14.6-0.9c0.3-0.2,0.7,0,0.9,0.3c0.2,0.3,0,0.7-0.3,0.9C211,250,207.5,251.8,202.2,251.8"/>
<path id="path534" class="st11" d="M196.6,235.9c-0.3,0-0.6-0.3-0.7-0.6l-0.8-7.8c0-0.4,0.2-0.7,0.6-0.7c0.4,0,0.7,0.2,0.7,0.6
	l0.8,7.8C197.3,235.6,197,235.9,196.6,235.9L196.6,235.9"/>
<path id="path536" class="st11" d="M215,234.1c-0.3,0-0.6-0.2-0.7-0.6l-0.9-7.5c0-0.4,0.2-0.7,0.6-0.7c0.4,0,0.7,0.2,0.7,0.6
	l0.9,7.5C215.7,233.7,215.5,234,215,234.1L215,234.1"/>
<path id="path538" class="st12" d="M200.2,259c0,0-0.4,4.3,0,9.4c0.4,5.1,2.6,16.1-7.9,16.9c-10.6,0.8-18.7-8.6-18.9-14.9
	c-0.2-6.3,0-28.1,0-28.1h10.6L200.2,259"/>
<path id="path540" class="st11" d="M181.7,213.6c0,0,1.1,23.2-4.1,23.3c-5.2,0.1-9.5-16.2-9.5-16.2L181.7,213.6"/>
<path id="path542" class="st2" d="M200,261.6c0,0,3.9,1.5,7.8,6.3c0,0,21.9,0.8,43.5,10.2c21.6,9.5,49.5-23.9,51.8-28.8l12.6,5.9
	c0,0-1,66.3-79.5,69.4c0,0,5.4,50.2-5.1,58.1c-10.5,7.9-74.6,5.6-82.8,0c-8.2-5.6-5.6-23-5.6-23s-17.2,31-20.1,57.2
	c0,0-6.3,4.8-18.5,0c0,0-6.2-48.4,8.2-94c14.4-45.7,50.1-55.2,50.1-55.2s4.4-10.2,10.9-13c0,0,0.6,20.5,19.9,26.4
	C193.1,281.2,201,279,200,261.6"/>
<path id="path544" class="st6" d="M200.7,284.6c0,0,0.1,7-1.8,13h-11.9c0,0-3.5-7.2-3.5-11.2l5-3.7l4.7-1.5L200.7,284.6"/>
<path id="path546" class="st6" d="M198.9,297.6c0,0,9.3,60.9,6.2,79.2c0,0-3.3,7.7-13.2,13.7c0,0-10.7-9-14.8-16.7l9.8-76.2
	L198.9,297.6"/>
<path id="path548" class="st12" d="M303.1,249.3c0,0-3.8-5.5-3.8-12.4c0-7,7.1-5.5,7.1-5.5s2-11.2,5.5-18.7c3.5-7.5,7.3-7.5,6.6-1.1
	c-0.7,6.4-4.4,13.7-4.4,13.7s16.2,4.5,15.9,10c-0.2,5.5-0.8,16.2-14.3,20L303.1,249.3"/>
<path id="path550" class="st13" d="M312.8,248.4L312.8,248.4c-0.4,0-0.7-0.4-0.7-0.7c0.5-5.3-5.9-7.8-5.9-7.8
	c-0.3-0.1-0.5-0.4-0.4-0.8s0.4-0.6,0.7-0.5c0.1,0,5.5,0.3,9.5-2.2c0.9-0.6,1.2-1,1.2-1.2c-0.2-1.3-6.2-2.6-8.5-3.1
	c-0.4-0.1-0.6-0.4-0.5-0.8c0.1-0.4,0.4-0.6,0.8-0.5c5.9,1.3,9.2,2.3,9.5,4.2c0.2,1.3-1.3,2.3-1.8,2.6c-2.6,1.6-5.6,2.2-7.7,2.4
	c2.1,1.4,4.8,3.9,4.5,8C313.4,248.2,313.1,248.4,312.8,248.4"/>
<path id="path552" class="st14" d="M236.2,325.3L236.2,325.3c-0.4,0-0.7-0.3-0.7-0.7c0.1-19.2-5.3-38.9-5.4-39.1
	c-0.1-0.4,0.1-0.7,0.5-0.8c0.4-0.1,0.7,0.1,0.8,0.5c0.1,0.2,5.5,20.1,5.4,39.5C236.9,325,236.6,325.3,236.2,325.3"/>
<path id="path554" class="st14" d="M142.7,360.5l-0.3-0.1c-0.3-0.2-0.5-0.6-0.3-0.9c7.1-14.9,17.8-37.5,9.1-59.7
	c-0.1-0.3,0-0.7,0.4-0.9c0.3-0.1,0.7,0,0.9,0.4c9,22.8-1.9,45.6-9.1,60.8C143.1,360.3,142.9,360.5,142.7,360.5"/>
<path id="path556" class="st15" d="M162.9,394.6c-5.6,0-9.9-0.1-11.2-0.4c-0.4-0.1-0.6-0.4-0.5-0.8c0.1-0.4,0.4-0.6,0.8-0.5
	c2.7,0.5,19.6,0.3,32,0.1c4.9-0.1,9.1-0.1,11.6-0.1c8.4,0,27.4-0.4,32.4-1.5c0.4-0.1,0.7,0.1,0.8,0.5c0.1,0.4-0.1,0.7-0.5,0.8
	c-5,1.2-24.2,1.5-32.7,1.5c-2.5,0-6.7,0.1-11.5,0.1C176.9,394.5,169.1,394.6,162.9,394.6"/>
<path id="path558" class="st15" d="M183.7,459.8l-0.2,0c-0.4-0.1-0.6-0.5-0.4-0.8c3.7-12.2,7.7-22.5,7.7-22.6
	c0.1-0.2,0.2-0.3,0.3-0.4c0.1-0.1,3.2-1.6,3.2-6.1c0-1.5,0-3.1-0.1-4.8c-0.1-3.8-0.2-8.2,0.1-13.9c0.4-8.1,1.9-10.4,2-10.6
	c0.2-0.3,0.6-0.4,0.9-0.1c0.3,0.2,0.4,0.6,0.1,0.9c0,0-1.4,2.2-1.8,9.9c-0.3,5.6-0.2,10-0.1,13.8c0,1.7,0.1,3.3,0.1,4.8
	c0,4.6-2.8,6.6-3.7,7.1c-0.6,1.6-4.3,11.2-7.6,22.3C184.2,459.6,184,459.8,183.7,459.8"/>
<path id="path560" class="st15" d="M174.9,440.3c-0.2,0-0.3,0-0.4,0c-0.4,0-0.6-0.4-0.6-0.7c0-0.4,0.4-0.6,0.7-0.6
	c0.1,0,1.7,0.1,8.8-1.1c17.8-3.2,19.1-7.8,19.1-7.9c0.1-0.3,0.4-0.6,0.8-0.5c0.4,0.1,0.6,0.4,0.5,0.7c-0.1,0.6-1.4,5.6-20.2,9
	C178,440.2,175.7,440.3,174.9,440.3"/>
<path id="path562" class="st15" d="M223.9,528.9c-6.6,0-8.9-3-9-3.2c-0.1-0.2-0.1-0.3-0.1-0.5c0-0.2,0.2-0.3,0.3-0.4
	c1.8-1.1,3.6-3.4,5.2-5.6c1.6-2.2,3.2-4.3,4.8-5c0.3-0.2,0.7,0,0.9,0.3c0.2,0.3,0,0.7-0.3,0.9c-1.2,0.6-2.7,2.5-4.2,4.6
	c-1.6,2.1-3.2,4.2-4.9,5.5c1,0.8,3.4,2.3,8,2.1c0.3,0,0.7,0.3,0.7,0.6c0,0.4-0.3,0.7-0.6,0.7C224.3,528.9,224.1,528.9,223.9,528.9"
	/>
<path id="path564" class="st15" d="M189.2,531.7c-0.1,0-0.3,0-0.4-0.1c-0.3-0.2-0.4-0.6-0.1-0.9c0.1-0.1,2.8-3.7,13.2-7.4
	c6.3-2.3,9.4-5.3,9.1-7.2c-0.1-1-1.5-1.7-3.7-1.9c-7.5-0.7-17.2-11.9-17.6-12.4c-0.2-0.3-0.2-0.7,0.1-0.9c0.3-0.2,0.7-0.2,0.9,0.1
	c0.1,0.1,9.8,11.3,16.7,11.9c3.9,0.4,4.7,2.1,4.9,3.1c0.4,2.9-3.6,6.2-10,8.6c-10,3.6-12.6,7-12.6,7
	C189.6,531.6,189.4,531.7,189.2,531.7"/>
<path id="path566" class="st15" d="M139.6,526.4l-0.3-0.1l-1.9-0.8c-4.5-1.9-5.6-2.4-5.6-3.4c0-0.9,1-1.3,3.3-2.1
	c1.1-0.4,2.6-1,4.3-1.7c1.9-0.8,4.1-1.8,6.4-2.7c7.9-3.3,16.8-7,21.1-10.4c0.3-0.2,0.7-0.2,0.9,0.1c0.2,0.3,0.2,0.7-0.1,0.9
	c-4.4,3.5-13.4,7.2-21.4,10.6c-2.3,1-4.5,1.9-6.4,2.7c-1.7,0.8-3.2,1.3-4.3,1.7c-0.9,0.3-1.8,0.7-2.2,0.9c0.6,0.4,2.4,1.2,4.6,2.1
	l1.9,0.8c0.3,0.1,0.5,0.5,0.4,0.9C140.1,526.3,139.9,526.4,139.6,526.4"/>
<path id="path568" class="st15" d="M122.7,510.2c-0.2,0-0.5-0.1-0.6-0.4c-0.2-0.3-0.1-0.7,0.3-0.9c0.2-0.1,17.8-9.5,27.3-12.9
	c1.9-0.7,1.9-1.1,1.9-1.1c-0.1-1.6-10.3-4.3-15.7-5.7c-2.9-0.7-5.6-1.4-7.6-2.1c-0.4-0.1-0.5-0.5-0.4-0.8c0.1-0.4,0.5-0.5,0.8-0.4
	c1.9,0.6,4.6,1.3,7.5,2.1c10.3,2.7,16.6,4.5,16.7,6.9c0.1,1.3-1.6,2-2.8,2.5c-9.4,3.3-26.9,12.7-27.1,12.8L122.7,510.2"/>
<path id="path570" class="st15" d="M140.9,424.4c-0.8,0-1.3,0-1.3,0c-0.4,0-0.6-0.4-0.6-0.7c0-0.4,0.4-0.6,0.7-0.6
	c0.8,0.1,20.1,1.9,25.6-22.1c0.1-0.4,0.4-0.6,0.8-0.5c0.4,0.1,0.6,0.4,0.5,0.8C161.7,422.8,145.6,424.4,140.9,424.4"/>
<path id="path572" class="st15" d="M233,422.2c-0.1,0-0.3,0-0.4-0.1c-0.4-0.2-8.8-6.1-14.2-22.9c-0.1-0.4,0.1-0.7,0.4-0.8
	c0.4-0.1,0.7,0.1,0.8,0.4c5.2,16.3,13.5,22.1,13.6,22.2c0.3,0.2,0.4,0.6,0.2,0.9C233.4,422.1,233.2,422.2,233,422.2"/>
<path id="path574" class="st14" d="M207.9,311.6c0.2,3,0.8,15,0.8,17.2c0,0.1,0,0.4,0.6,0.9c2.6,2.1,9.7,4.1,10.6,3.9
	c1.2-0.3,7.1-4.1,7.8-5.2c0.4-0.9-0.2-9.6-1-17.5C224.2,311,213.7,311.4,207.9,311.6z M219.9,334.9c-2,0-8.7-2.1-11.2-4.1
	c-0.9-0.7-1.3-1.4-1.3-2c0-2.5-0.8-17.7-0.9-17.9c0-0.2,0.1-0.4,0.2-0.5c0.1-0.1,0.3-0.2,0.5-0.2c6.4-0.2,20-0.7,20.2-0.7
	c0.3,0,0.7,0.2,0.7,0.6c0.6,5.3,1.8,17.7,0.9,19c-1,1.4-7.3,5.4-8.6,5.7C220.2,334.9,220.1,334.9,219.9,334.9"/>
<path id="path576" class="st14" d="M213.4,315.8c-1.1,0-2.2,0-3.3-0.1c-0.4,0-0.6-0.3-0.6-0.7c0-0.4,0.3-0.6,0.7-0.6
	c7,0.4,17.4-0.8,17.5-0.8c0.4-0.1,0.7,0.2,0.7,0.6c0,0.4-0.2,0.7-0.6,0.7C227.8,314.9,220.1,315.8,213.4,315.8"/>
<path id="path578" class="st12" d="M122.6,417c0,0,5.5,8.4,5.4,15.4c-0.1,7-3.6,5.1-5.4-2.3c-1.8-7.3-3.9,4.7-3.8,9.6
	s2.1,10.6-3.7,10.6s-10.7-10.8-10.7-17.3s0.7-17.5,0.7-17.5L122.6,417"/>
<path id="path580" class="st11" d="M216.5,213.9c0,0-18.2,3.5-34.8,2.9l-11.1,4.1l-5.4-10.9l20.6-14.8l25.1,2.5l7.6,7.9L216.5,213.9
	"/>
<path id="path582" class="st14" d="M175.6,295l-0.2,0c-0.5-0.1-11.1-3.3-13.8-25.6c0-0.4,0.2-0.7,0.6-0.7c0.4,0,0.7,0.2,0.7,0.6
	c2.3,18.9,10.5,23.5,12.4,24.3c1.9-2.2,11.6-13.1,17.7-13c4.8,0.1,11.3,6.1,13.4,8.2c3.9-8.9,0.6-18.5,0.6-18.6
	c-0.1-0.3,0.1-0.7,0.4-0.8c0.3-0.1,0.7,0.1,0.9,0.4c0.2,0.4,3.7,10.8-1,20.5c-0.1,0.2-0.3,0.3-0.5,0.4c-0.2,0-0.4,0-0.6-0.2
	c-0.1-0.1-7.9-8.3-13.1-8.5l-0.1,0c-6.1,0-16.8,12.8-16.9,12.9C176,294.9,175.8,295,175.6,295"/>
<path id="path584" class="st16" d="M198.9,298.2h-11.9c-0.4,0-0.7-0.3-0.7-0.7c0-0.4,0.3-0.7,0.7-0.7h11.9c0.4,0,0.7,0.3,0.7,0.7
	C199.5,297.9,199.2,298.2,198.9,298.2"/>
<path id="path586" class="st17" d="M683.2,298.7h-28.8c-1.5,0-2.7-1.2-2.7-2.7c0-1.5,1.2-2.7,2.7-2.7h28.8c1.5,0,2.7,1.2,2.7,2.7
	C685.9,297.5,684.7,298.7,683.2,298.7"/>
<path id="path588" class="st18" d="M726,298.7h-28.8c-1.5,0-2.7-1.2-2.7-2.7c0-1.5,1.2-2.7,2.7-2.7H726c1.5,0,2.7,1.2,2.7,2.7
	C728.8,297.5,727.5,298.7,726,298.7"/>
<path id="path590" class="st17" d="M670.4,313.3h-16c-1.5,0-2.7-1.2-2.7-2.7c0-1.5,1.2-2.7,2.7-2.7h16c1.5,0,2.7,1.2,2.7,2.7
	C673.1,312.1,671.9,313.3,670.4,313.3"/>
<path id="path592" class="st18" d="M735.9,313.3h-51.4c-1.5,0-2.7-1.2-2.7-2.7c0-1.5,1.2-2.7,2.7-2.7h51.4c1.5,0,2.7,1.2,2.7,2.7
	C738.6,312.1,737.4,313.3,735.9,313.3"/>
<path id="path594" class="st17" d="M697,328.8h-42.6c-1.5,0-2.7-1.2-2.7-2.7c0-1.5,1.2-2.7,2.7-2.7H697c1.5,0,2.7,1.2,2.7,2.7
	C699.7,327.6,698.5,328.8,697,328.8"/>
<path id="path596" class="st10" d="M672.3,599.5c0,0-4,6.4-10.2,8.8c-6.2,2.4-1.7,12-1.7,12s14.5-3.3,21.6-6.1
	c7.1-2.8,12.6-4.4,5-16.8L672.3,599.5"/>
<path id="path598" class="st10" d="M663.3,601.8c0,0,6.2,12.4,2.4,15.9c-3.8,3.6-13.3,3.6-22.5,6.4c-9.2,2.8-16.8,8-24.7,1.2
	c-3.6-3.1,7.8-4.3,15.9-8.8c8.1-4.5,8.6-6.7,11.7-12.8L663.3,601.8"/>
<path id="path600" class="st11" d="M641.7,515.7c0,0,25.3,62.3,28.3,74.4c2.3,9.3,2.3,9.3,2.3,9.3s3.4,3.8,14.7-2
	c0,0,1.6-28-2.1-49.6c-3.8-21.6-10.2-37.6-10.2-37.6L641.7,515.7"/>
<path id="path602" class="st11" d="M676,472.4c0,0-8.2,4.3-17.8,5.9c-9.5,1.6-46.8,2.5-46.8,34.4c0,31.9,34.6,80.3,34.6,91
	c0,0,6.7,3.9,17.2-1.9c0,0-0.6-9.3-2-27.7c-1.5-18.4-14-56.6-14-56.6s47.3,5.8,53.4-10.2c6.1-16,2-34.8,2-34.8L676,472.4"/>
<path id="path604" class="st12" d="M676.7,320.8c0,0,0.1,5.1,0.6,9.1c0,0-2.6,8.9-4.5,12.3c-1.9,3.4,5.7,2.8,5.7,2.8
	s2.5,12.3,5.4,12.3c2.9,0,10.7-3.7,10.7-3.7s11.5-18-1-29.5C680.9,312.5,676.7,320.8,676.7,320.8"/>
<path id="path606" class="st6" d="M690.4,365.5c0,0-11.4-0.1-24.9,12.6c-13.5,12.7-22.3,34.1-22.3,34.1s-7.5-16.1-10.5-20.4
	c0,0-6.9-4.7-15.2,3.9c0,0-0.6,28.8,11.2,43.1c11.8,14.4,24.8,13.7,35.4,4.7c4.1-3.4,4.1-3.4,4.1-3.4s3.6,26,5.9,30.3
	c2.3,4.3,14.5,6.9,23.5,6.9c9,0,32.5,1.1,45.9-6.1c5.7-3.1,18.3-66,10.7-86C746.5,365.2,699.9,363.2,690.4,365.5"/>
<path id="path608" class="st11" d="M696.9,288.8c-19,2.6-25,22.6-22.3,31.8c2.7,9.2,12.9,9.3,15.5,13.7c2.6,4.4,0.5,16.5-1.8,29
	c-2.3,12.5,1.4,31.8,33.4,27.9c32-3.9,39-14.2,26.7-34c-12.3-19.8-13.9-22.2-9.3-33.1C743.8,313.2,741.9,282.6,696.9,288.8"/>
<path id="path610" class="st15" d="M721.7,392.6c-0.3,0-0.6-0.1-0.8-0.3c-0.5-0.4-13.3-10.8-17.1-20.3c-2.7-6.7-0.9-15.7,0.6-23.6
	c0.7-3.6,1.4-7,1.6-9.9c0.6-8.7-6.4-14.8-6.5-14.9c-0.6-0.5-0.6-1.3-0.1-1.9c0.5-0.6,1.3-0.6,1.9-0.2c0.3,0.3,8.2,7.1,7.4,17.1
	c-0.2,3.1-0.9,6.6-1.6,10.3c-1.5,7.6-3.2,16.1-0.8,22.1c3.5,8.9,16.2,19.1,16.3,19.2c0.6,0.5,0.7,1.3,0.2,1.9
	C722.5,392.4,722.1,392.6,721.7,392.6"/>
<path id="path612" class="st15" d="M745.5,386.5l-0.2,0c-0.7-0.1-1.2-0.8-1.1-1.5c0.4-2.5-3.3-5.9-9.3-11.6
	c-1.3-1.2-2.7-2.5-4.1-3.9c-9.3-8.9-8.8-16.7-6.9-23.9c0.2-0.7,0.9-1.1,1.6-0.9c0.7,0.2,1.1,0.9,0.9,1.6c-1.7,6.2-2.6,13,6.2,21.3
	c1.5,1.4,2.9,2.7,4.1,3.9c6.9,6.5,10.8,10.1,10.1,13.9C746.7,386,746.1,386.5,745.5,386.5"/>
<path id="path614" class="st9" d="M668.1,440.7c-0.2,0-0.3-0.1-0.4-0.2c-0.3-0.2-0.3-0.7-0.1-0.9c0.2-0.2,18.7-21,20.4-33.5
	c0-0.4,0.4-0.6,0.7-0.6c0.4,0,0.6,0.4,0.6,0.8c-1.8,12.9-20,33.3-20.8,34.2C668.5,440.7,668.3,440.7,668.1,440.7"/>
<path id="path616" class="st9" d="M638.5,423.8c-0.4,0-0.7-0.3-0.7-0.7c0-7,4.8-11.3,5-11.5c0.3-0.2,0.7-0.2,0.9,0.1
	c0.2,0.3,0.2,0.7-0.1,0.9c0,0-4.5,4.1-4.5,10.5C639.1,423.5,638.8,423.8,638.5,423.8"/>
<path id="path618" class="st12" d="M630.6,390.9c0,0,4.6-2.3,5.3-8.8c0.6-6.5,1.3-6.9,1.8-8.6c0.5-1.7-3.4-3.1-5,0.7
	c-1.6,3.8-1.2,7-3.1,6.3c-1.8-0.7,1-14.4-2.8-15.7c-3.8-1.3-13,2.2-14,8.2c-1,6-1.7,16.5,6.3,21.3L630.6,390.9"/>
<path id="path620" class="st15" d="M663.3,602.5c-0.3,0-0.6-0.3-0.7-0.6c0-0.1-0.6-9.5-2-27.7c-1.4-18.1-13.8-56.1-14-56.4
	c-0.1-0.4,0.1-0.7,0.4-0.8c0.3-0.1,0.7,0.1,0.8,0.4c0.1,0.4,12.6,38.5,14,56.8c1.4,18.2,2,27.6,2,27.7
	C663.9,602.1,663.7,602.4,663.3,602.5L663.3,602.5"/>
<path id="path622" class="st19" d="M660.4,621c-0.3,0-0.6-0.2-0.6-0.5c-0.1-0.4,0.1-0.7,0.5-0.8c2.4-0.7,4-1.4,5-2.4
	c2.8-2.6-0.9-11.8-2.6-15.2c-0.2-0.3,0-0.7,0.3-0.9c0.3-0.2,0.7,0,0.9,0.3c0.7,1.3,6.3,12.9,2.3,16.7c-1.2,1.1-3,2-5.5,2.7
	L660.4,621"/>
<path id="path624" class="st2" d="M720.6,618.2h-13v-96.4h13V618.2"/>
<path id="path626" class="st2" d="M755.4,625c0.9,0,1.4-1.2,0.7-1.8c-9.8-8.8-25-14.4-42.1-14.4c-17.1,0-32.3,5.6-42.1,14.4
	c-0.7,0.6-0.2,1.8,0.7,1.8H755.4"/>
<path id="path628" class="st5" d="M707.7,387c-11.2,7.7-20.7,33.9-20.7,61.6c0,27.7,14.3,54.2-8.6,55.9c-22.9,1.7-39.7-3-42.4,5.8
	c-2.7,8.7,34.8,20.8,85.7,16.1c50.9-4.7,43.5-20.9,41.2-40.1c-2.4-19.2-2.4-59.6,8.7-77.4c11.1-17.8,9.1-27.7-20.2-28.3
	C722.2,379.9,712.6,383.6,707.7,387"/>
<path id="path630" class="st3" d="M724,415.3c0,0,0.9-7.9,2.1-12.5c0,0,10.1-3.3,30.5-1.2c0,0-1.9,7.5-2.3,12.3
	C754.3,414,738.7,413.1,724,415.3"/>
<path id="path632" class="st18" d="M422.2,74.5c-0.3,0-0.6-0.2-0.6-0.5L412,31.8l-6.6,21.8c-0.1,0.3-0.4,0.5-0.7,0.5
	c-0.3,0-0.6-0.3-0.6-0.6l-4.1-30.8l-7.1,42.1c-0.1,0.3-0.3,0.5-0.6,0.6c-0.3,0-0.6-0.2-0.7-0.5l-7-21.8h-48.3
	c-0.4,0-0.7-0.3-0.7-0.7c0-0.4,0.3-0.7,0.7-0.7H385c0.3,0,0.5,0.2,0.6,0.5l6.3,19.7l7.4-43.8c0.1-0.3,0.4-0.6,0.7-0.6
	c0.3,0,0.6,0.3,0.6,0.6l4.3,32.2l6.4-21.3c0.1-0.3,0.4-0.5,0.7-0.5c0.3,0,0.6,0.2,0.6,0.5l9.4,41.7l9.1-41.2
	c0.1-0.3,0.4-0.5,0.7-0.5c0.3,0,0.6,0.2,0.6,0.5l2.4,12.2h40.5c0.4,0,0.7,0.3,0.7,0.7c0,0.4-0.3,0.7-0.7,0.7h-41.1
	c-0.3,0-0.6-0.2-0.7-0.5l-1.9-9.6l-9,41C422.7,74.3,422.5,74.5,422.2,74.5L422.2,74.5"/>
<path id="path634" class="st3" d="M486.4,94.7h-5.1V68.6h5.1V94.7"/>
<path id="path636" class="st6" d="M483.8,73.8L483.8,73.8c-4.6,0-8.3-3.7-8.3-8.3V19.3c0-4.6,3.7-8.3,8.3-8.3c4.6,0,8.3,3.7,8.3,8.3
	v46.2C492.1,70.1,488.4,73.8,483.8,73.8"/>
<path id="path638" class="st3" d="M334.5,94.7h-5.1V68.6h5.1V94.7"/>
<path id="path640" class="st5" d="M529.3,345.9H299.3c-13.3,0-24-10.8-24-24v-8.6h278v8.6C553.3,335.1,542.6,345.9,529.3,345.9"/>
<path id="path642" class="st5" d="M529.3,90.2H299.3c-13.3,0-24,10.8-24,24v8.6h278v-8.6C553.3,101,542.6,90.2,529.3,90.2"/>
<path id="path644" class="st2" d="M455.9,375h-83.2v-29.2h83.2V375"/>
<path id="path646" class="st4" d="M510.9,586.6H317.7V388.3c0-7.3,6-13.3,13.3-13.3h166.6c7.3,0,13.3,6,13.3,13.3L510.9,586.6"/>
<path id="path648" class="st2" d="M505.8,633.7H322.9c-13,0-23.5-10.5-23.5-23.5s10.5-23.5,23.5-23.5h182.9
	c13,0,23.5,10.5,23.5,23.5S518.8,633.7,505.8,633.7"/>
<path id="path650" class="st5" d="M340.3,610.2c0,9.2-7.4,16.6-16.6,16.6c-9.2,0-16.6-7.4-16.6-16.6s7.4-16.6,16.6-16.6
	C332.9,593.5,340.3,601,340.3,610.2"/>
<path id="path652" class="st5" d="M385.5,610.2c0,9.2-7.4,16.6-16.6,16.6c-9.2,0-16.6-7.4-16.6-16.6s7.4-16.6,16.6-16.6
	C378.1,593.5,385.5,601,385.5,610.2"/>
<path id="path654" class="st5" d="M430.7,610.2c0,9.2-7.4,16.6-16.6,16.6c-9.2,0-16.6-7.4-16.6-16.6s7.4-16.6,16.6-16.6
	C423.3,593.5,430.7,601,430.7,610.2"/>
<path id="path656" class="st5" d="M476,610.2c0,9.2-7.4,16.6-16.6,16.6c-9.2,0-16.6-7.4-16.6-16.6s7.4-16.6,16.6-16.6
	C468.5,593.5,476,601,476,610.2"/>
<path id="path658" class="st5" d="M521.2,610.2c0,9.2-7.4,16.6-16.6,16.6c-9.2,0-16.6-7.4-16.6-16.6s7.4-16.6,16.6-16.6
	C513.7,593.5,521.2,601,521.2,610.2"/>
<path id="path660" class="st14" d="M504.9,604.5c-3,0-5.4,2.4-5.4,5.4c0,3,2.4,5.4,5.4,5.4c3,0,5.4-2.4,5.4-5.4
	C510.2,606.9,507.8,604.5,504.9,604.5z M504.9,616.6c-3.7,0-6.7-3-6.7-6.7c0-3.7,3-6.7,6.7-6.7c3.7,0,6.7,3,6.7,6.7
	C511.6,613.6,508.6,616.6,504.9,616.6"/>
<path id="path662" class="st14" d="M323.7,604.8c-3,0-5.4,2.4-5.4,5.4c0,3,2.4,5.4,5.4,5.4c3,0,5.4-2.4,5.4-5.4
	C329.1,607.2,326.7,604.8,323.7,604.8z M323.7,616.9c-3.7,0-6.7-3-6.7-6.7s3-6.7,6.7-6.7c3.7,0,6.7,3,6.7,6.7
	S327.4,616.9,323.7,616.9"/>
<path id="path664" class="st20" d="M286.6,142.6c-3.4,0-6.7-0.1-10.1-0.2v-8h66.3c-14.1,4.1-28.5,6.8-43.4,7.8
	C295.1,142.5,290.9,142.6,286.6,142.6"/>
<path id="path666" class="st21" d="M551.8,301.8H295.5c19.9-20.2,20.3-46.5,20.3-46.5l0,0c13.5-3.9,14.1-14.5,14.3-20
	c0.1-2.7-3.7-5.1-7.6-6.9c9.3-2.1,16.2-10.4,16.2-20.4c0-11.5-9.4-20.9-20.9-20.9s-20.9,9.4-20.9,20.9c0,7.8,4.3,14.6,10.6,18.2
	c-0.7,3.1-1.1,5.2-1.1,5.2s-0.6-0.1-1.4-0.1c-2.1,0-5.6,0.7-5.6,5.7c0,7,3.8,12.4,3.8,12.4c-1.4,3.1-12.9,17.3-26.6,25.2V142.5
	c3.4,0.1,6.7,0.2,10.1,0.2c4.3,0,8.6-0.1,12.8-0.4c14.9-0.9,29.4-3.7,43.4-7.8h209L551.8,301.8"/>
<path id="path668" class="st22" d="M295.5,301.8h-19v-27.3c13.7-7.9,25.2-22.1,26.6-25.2l0,0l12.6,5.9
	C315.8,255.3,315.4,281.6,295.5,301.8"/>
<path id="path670" class="st23" d="M315.8,255.3L315.8,255.3l-12.6-5.9l0,0c0,0-3.8-5.5-3.8-12.4c0-4.9,3.6-5.7,5.6-5.7
	c0.8,0,1.4,0.1,1.4,0.1s0.4-2.2,1.1-5.2c3,1.7,6.5,2.7,10.3,2.7c1.6,0,3.2-0.2,4.7-0.5c3.9,1.8,7.7,4.2,7.6,6.9
	C329.9,240.8,329.3,251.4,315.8,255.3 M306.4,238.6c-0.3,0-0.6,0.2-0.6,0.5c-0.1,0.3,0.1,0.6,0.4,0.8c0.1,0,6.4,2.5,5.9,7.8
	c0,0.4,0.2,0.7,0.6,0.7l0.1,0c0.3,0,0.6-0.3,0.7-0.6c0.4-4-2.3-6.6-4.5-8c2.1-0.2,5.1-0.7,7.7-2.4c0.5-0.3,2-1.3,1.8-2.6
	c-0.3-1.8-3.6-2.9-9.5-4.2c0,0-0.1,0-0.1,0c-0.3,0-0.6,0.2-0.6,0.5c-0.1,0.4,0.1,0.7,0.5,0.8c2.3,0.5,8.3,1.8,8.5,3.1
	c0,0.2-0.2,0.7-1.2,1.2c-3.2,2-7.4,2.3-8.9,2.3C306.7,238.6,306.5,238.6,306.4,238.6C306.4,238.6,306.4,238.6,306.4,238.6"/>
<path id="path672" class="st24" d="M312.8,248.4L312.8,248.4c-0.4,0-0.7-0.4-0.7-0.7c0.5-5.3-5.9-7.8-5.9-7.8
	c-0.3-0.1-0.5-0.4-0.4-0.8c0.1-0.3,0.3-0.5,0.6-0.5c0,0,0,0,0.1,0c0,0,0.2,0,0.6,0c1.5,0,5.7-0.2,8.9-2.3c0.9-0.6,1.2-1,1.2-1.2
	c-0.2-1.3-6.2-2.6-8.5-3.1c-0.4-0.1-0.6-0.4-0.5-0.8c0.1-0.3,0.3-0.5,0.6-0.5c0,0,0.1,0,0.1,0c5.9,1.3,9.2,2.3,9.5,4.2
	c0.2,1.3-1.3,2.3-1.8,2.6c-2.6,1.6-5.6,2.2-7.7,2.4c2.1,1.4,4.8,3.9,4.5,8C313.4,248.2,313.1,248.4,312.8,248.4"/>
<path id="path674" class="st25" d="M276.5,301.8h275.3V134.5H276.5V301.8 M553.1,304.5h-278c-0.7,0-1.3-0.6-1.3-1.3v-170
	c0-0.7,0.6-1.3,1.3-1.3h278c0.7,0,1.3,0.6,1.3,1.3v170C554.5,303.9,553.9,304.5,553.1,304.5"/>
<path id="path676" class="st7" d="M459.3,202.9H369c-15.5,0-28.1-12.6-28.1-28.1c0-15.5,12.6-28.1,28.1-28.1h90.3
	c15.5,0,28.1,12.6,28.1,28.1C487.4,190.3,474.9,202.9,459.3,202.9"/>
<path id="path678" class="st25" d="M369,148c-14.8,0-26.8,12-26.8,26.8c0,14.8,12,26.8,26.8,26.8h90.3c14.8,0,26.8-12,26.8-26.8
	c0-14.8-12-26.8-26.8-26.8H369z M459.3,204.2H369c-16.2,0-29.4-13.2-29.4-29.4s13.2-29.4,29.4-29.4h90.3c16.2,0,29.4,13.2,29.4,29.4
	S475.6,204.2,459.3,204.2"/>
<path id="path680" class="st6" d="M332,73.8L332,73.8c-4.6,0-8.3-3.7-8.3-8.3V19.3c0-4.6,3.7-8.3,8.3-8.3c4.6,0,8.3,3.7,8.3,8.3
	v46.2C340.3,70.1,336.6,73.8,332,73.8"/>
<path id="path682" class="st5" d="M389.3,174.8c0,6.8-5.5,12.3-12.3,12.3c-6.8,0-12.3-5.5-12.3-12.3s5.5-12.3,12.3-12.3
	C383.8,162.5,389.3,168,389.3,174.8"/>
<path id="path684" class="st5" d="M463.6,174.8c0,6.8-5.5,12.3-12.3,12.3c-6.8,0-12.3-5.5-12.3-12.3s5.5-12.3,12.3-12.3
	C458.1,162.5,463.6,168,463.6,174.8"/>
<path id="path686" class="st25" d="M431.6,186.8h-34.9c-0.7,0-1.3-0.6-1.3-1.3c0-0.7,0.6-1.3,1.3-1.3h34.9c0.7,0,1.3,0.6,1.3,1.3
	C432.9,186.2,432.3,186.8,431.6,186.8"/>
<path id="path688" class="st5" d="M372.7,288h-19.1V221h19.1V288"/>
<path id="path690" class="st6" d="M398.3,288h-19.1v-48.5h19.1V288"/>
<path id="path692" class="st3" d="M423.9,288h-19.1v-26.4h19.1V288"/>
<path id="path694" class="st18" d="M469.1,258.4h-27.5c-1.4,0-2.6-1.2-2.6-2.6c0-1.4,1.2-2.6,2.6-2.6h27.5c1.4,0,2.6,1.2,2.6,2.6
	C471.7,257.2,470.6,258.4,469.1,258.4"/>
<path id="path696" class="st18" d="M510.2,258.4h-27.5c-1.4,0-2.6-1.2-2.6-2.6c0-1.4,1.2-2.6,2.6-2.6h27.5c1.4,0,2.6,1.2,2.6,2.6
	C512.8,257.2,511.6,258.4,510.2,258.4"/>
<path id="path698" class="st18" d="M456.9,272.4h-15.3c-1.4,0-2.6-1.2-2.6-2.6c0-1.4,1.2-2.6,2.6-2.6h15.3c1.4,0,2.6,1.2,2.6,2.6
	C459.5,271.2,458.4,272.4,456.9,272.4"/>
<path id="path700" class="st18" d="M531.7,272.4h-61.3c-1.4,0-2.6-1.2-2.6-2.6c0-1.4,1.2-2.6,2.6-2.6h61.3c1.4,0,2.6,1.2,2.6,2.6
	C534.4,271.2,533.2,272.4,531.7,272.4"/>
<path id="path702" class="st18" d="M482.4,287.2h-40.8c-1.4,0-2.6-1.2-2.6-2.6c0-1.4,1.2-2.6,2.6-2.6h40.8c1.4,0,2.6,1.2,2.6,2.6
	C485,286,483.8,287.2,482.4,287.2"/>
<path id="path704" class="st26" d="M322.5,228.3c-4.1-1.9-8.3-3.1-8.3-3.1s1.6-3.1,2.9-7.1c0.2,0,0.5,0,0.7,0
	c5.6,0,10.2-4.6,10.2-10.2s-4.6-10.2-10.2-10.2s-10.2,4.6-10.2,10.2c0,2.9,1.2,5.5,3.2,7.4c-1.4,3.6-2.5,7.7-3.3,10.8
	c-6.3-3.6-10.6-10.4-10.6-18.2c0-11.5,9.4-20.9,20.9-20.9c11.5,0,20.9,9.4,20.9,20.9C338.7,217.9,331.8,226.2,322.5,228.3"/>
<path id="path706" class="st27" d="M317.8,228.8c-3.7,0-7.2-1-10.3-2.7c0.7-3.1,1.8-7.1,3.3-10.8c1.7,1.6,3.9,2.6,6.3,2.8
	c-1.3,4-2.9,7.1-2.9,7.1s4.2,1.2,8.3,3.1C321,228.7,319.4,228.8,317.8,228.8"/>
<path id="path708" class="st28" d="M317.8,218.2c-0.2,0-0.5,0-0.7,0c0.7-2.1,1.3-4.4,1.5-6.6c0.3-3.1-0.4-4.7-1.6-4.7
	c-1.3,0-3.2,1.9-5,5.8c-0.4,0.9-0.8,1.8-1.1,2.7c-2-1.9-3.2-4.5-3.2-7.4c0-5.6,4.6-10.2,10.2-10.2S328,202.3,328,208
	S323.4,218.2,317.8,218.2"/>
<path id="path710" class="st29" d="M317.1,218.1c-2.4-0.2-4.6-1.2-6.3-2.8c0.4-0.9,0.7-1.8,1.1-2.7c1.8-3.9,3.7-5.8,5-5.8
	c1.2,0,1.9,1.6,1.6,4.7C318.4,213.8,317.8,216.1,317.1,218.1"/>
<path id="path712" class="st30" d="M488.7,406.3H339.9c-2,0-3.6-1.6-3.6-3.6s1.6-3.6,3.6-3.6h148.8c2,0,3.6,1.6,3.6,3.6
	S490.7,406.3,488.7,406.3"/>
<path id="path714" class="st30" d="M488.7,421.3H339.9c-2,0-3.6-1.6-3.6-3.6c0-2,1.6-3.6,3.6-3.6h148.8c2,0,3.6,1.6,3.6,3.6
	S490.7,421.3,488.7,421.3"/>
<path id="path716" class="st30" d="M488.7,436.4H339.9c-2,0-3.6-1.6-3.6-3.6c0-2,1.6-3.6,3.6-3.6h148.8c2,0,3.6,1.6,3.6,3.6
	C492.4,434.7,490.7,436.4,488.7,436.4"/>
<path id="path718" class="st2" d="M352.3,469.9h-16v-16h16V469.9"/>
<path id="path720" class="st2" d="M376.9,469.9h-16v-16h16V469.9"/>
<path id="path722" class="st2" d="M401.6,469.9h-16v-16h16V469.9"/>
<path id="path724" class="st2" d="M352.3,492.3h-16v-16h16V492.3"/>
<path id="path726" class="st2" d="M376.9,492.3h-16v-16h16V492.3"/>
<path id="path728" class="st2" d="M401.6,492.3h-16v-16h16V492.3"/>
<path id="path730" class="st2" d="M352.3,515.5h-16v-16h16V515.5"/>
<path id="path732" class="st2" d="M376.9,515.5h-16v-16h16V515.5"/>
<path id="path734" class="st6" d="M401.6,515.5h-16v-16h16V515.5"/>
<path id="path736" class="st30" d="M362.4,543.8c0,7.4-6,13.5-13.5,13.5c-7.4,0-13.5-6-13.5-13.5s6-13.5,13.5-13.5
	C356.4,530.3,362.4,536.4,362.4,543.8"/>
<path id="path738" class="st2" d="M400.7,543.8c0,7.4-6,13.5-13.5,13.5c-7.4,0-13.5-6-13.5-13.5s6-13.5,13.5-13.5
	C394.7,530.3,400.7,536.4,400.7,543.8"/>
<path id="path740" class="st1" d="M484.9,516h-58.3c-4.1,0-7.4-3.3-7.4-7.4v-47.3c0-4.1,3.3-7.4,7.4-7.4h58.3c4.1,0,7.4,3.3,7.4,7.4
	v47.3C492.4,512.7,489,516,484.9,516"/>
<path id="path742" class="st6" d="M445.2,495.2c-3.8,0-6.9-3.1-6.9-6.9s3.1-6.9,6.9-6.9c3.8,0,6.9,3.1,6.9,6.9
	S449,495.2,445.2,495.2z M461.7,485.4h-4.2c-0.3-1.3-0.8-2.6-1.6-3.8l3-3c0.2-0.2,0.2-0.4,0-0.6l-3.6-3.6c-0.2-0.2-0.4-0.2-0.6,0
	l-3,3c-1.1-0.7-2.4-1.2-3.8-1.6v-4.2c0-0.2-0.2-0.4-0.4-0.4h-5.1c-0.2,0-0.4,0.2-0.4,0.4v4.2c-1.3,0.3-2.6,0.8-3.7,1.6l-3-3
	c-0.2-0.2-0.4-0.2-0.6,0l-3.6,3.6c-0.2,0.2-0.2,0.4,0,0.6l3,3c-0.7,1.1-1.2,2.4-1.6,3.8h-4.2c-0.2,0-0.4,0.2-0.4,0.4v5.1
	c0,0.2,0.2,0.4,0.4,0.4h4.2c0.3,1.3,0.8,2.6,1.6,3.8l-3,3c-0.2,0.2-0.2,0.4,0,0.6l3.6,3.6c0.2,0.2,0.4,0.2,0.6,0l3-3
	c1.1,0.7,2.4,1.2,3.7,1.6v4.2c0,0.2,0.2,0.4,0.4,0.4h5.1c0.2,0,0.4-0.2,0.4-0.4v-4.2c1.3-0.3,2.6-0.8,3.8-1.6l3,3
	c0.2,0.2,0.4,0.2,0.6,0l3.6-3.6c0.2-0.2,0.2-0.4,0-0.6l-3-3c0.7-1.1,1.2-2.4,1.6-3.8h4.2c0.2,0,0.4-0.2,0.4-0.4v-5.1
	C462.1,485.6,462,485.4,461.7,485.4"/>
<path id="path744" class="st5" d="M470.2,481.1c-2.6-0.7-4.1-3.3-3.4-5.8c0.7-2.6,3.3-4.1,5.8-3.4c2.6,0.7,4.1,3.3,3.4,5.8
	C475.4,480.3,472.8,481.8,470.2,481.1z M483.1,477.4l-2.8-0.7c0-1-0.1-1.9-0.4-2.8l2.5-1.5c0.1-0.1,0.2-0.2,0.1-0.4l-1.8-3
	c-0.1-0.1-0.2-0.2-0.4-0.1l-2.5,1.5c-0.6-0.7-1.4-1.3-2.3-1.7l0.7-2.8c0-0.1-0.1-0.3-0.2-0.3l-3.4-0.9c-0.1,0-0.3,0.1-0.3,0.2
	l-0.7,2.8c-1,0-1.9,0.1-2.8,0.4l-1.5-2.5c-0.1-0.1-0.2-0.2-0.4-0.1l-3,1.8c-0.1,0.1-0.2,0.2-0.1,0.4l1.5,2.5
	c-0.7,0.6-1.3,1.4-1.7,2.3l-2.8-0.7c-0.1,0-0.3,0.1-0.3,0.2l-0.9,3.4c0,0.1,0.1,0.3,0.2,0.3l2.8,0.7c0,1,0.1,1.9,0.4,2.8l-2.5,1.5
	c-0.1,0.1-0.2,0.2-0.1,0.4l1.8,3c0.1,0.1,0.2,0.2,0.4,0.1l2.5-1.5c0.6,0.7,1.4,1.3,2.3,1.7l-0.7,2.8c0,0.1,0.1,0.3,0.2,0.3l3.4,0.9
	c0.1,0,0.3-0.1,0.3-0.2l0.7-2.8c1,0,1.9-0.1,2.8-0.4l1.5,2.5c0.1,0.1,0.2,0.2,0.4,0.1l3-1.8c0.1-0.1,0.2-0.2,0.1-0.4l-1.5-2.5
	c0.7-0.6,1.3-1.4,1.7-2.3l2.8,0.7c0.1,0,0.3-0.1,0.3-0.2l0.9-3.4C483.3,477.6,483.2,477.5,483.1,477.4"/>
<path id="path746" class="st18" d="M553.3,114.9h-81.6c-0.2,0-0.5-0.1-0.6-0.3l-9.6-16.4h-96.5l-11,16.4c-0.1,0.2-0.3,0.3-0.6,0.3
	h-78.2c-0.4,0-0.7-0.3-0.7-0.7c0-0.4,0.3-0.7,0.7-0.7h77.9l11-16.4c0.1-0.2,0.3-0.3,0.6-0.3H462c0.2,0,0.5,0.1,0.6,0.3l9.6,16.4
	h81.2c0.4,0,0.7,0.3,0.7,0.7C554,114.6,553.7,114.9,553.3,114.9"/>
<path id="path748" class="st18" d="M439,109.9h-53.1c-0.4,0-0.7-0.3-0.7-0.7c0-0.4,0.3-0.7,0.7-0.7H439c0.4,0,0.7,0.3,0.7,0.7
	C439.6,109.6,439.4,109.9,439,109.9"/>
<path id="path750" class="st6" d="M703.4,133c0-31.4-25.5-56.9-56.9-56.9c-31.4,0-56.9,25.5-56.9,56.9c0,9.9,2.8,19.7,7.8,28.2
	c2.5,4.3,5.6,8.2,9,11.8c3.3,3.5,7.6,5.7,10.8,9.3c2.7,3.1,3,6.8,4.3,10.5c1.6,4.5,5.9,7.6,10.7,7.6h28.7c4.8,0,9-3,10.7-7.5
	c1.1-3.1,1.9-7.1,3.6-9.8c2.1-3.5,6.9-5.2,9.9-8.1c3.8-3.6,7.1-7.5,9.9-12C700.4,154.1,703.4,143.6,703.4,133"/>
<path id="path752" class="st31" d="M663.7,97.5c-0.6,0-1.2-0.1-1.8-0.4c-1.3-0.6-2.6-1.1-4-1.5c-2.4-0.7-3.7-3.2-3-5.6
	c0.7-2.4,3.2-3.7,5.6-3c1.7,0.5,3.3,1.1,4.9,1.8c2.3,1,3.3,3.6,2.3,5.9C667,96.5,665.4,97.5,663.7,97.5"/>
<path id="path754" class="st31" d="M690,137.5c-2.5,0-4.5-2-4.5-4.5c0-10.8-4.3-20.9-12.2-28.3c-1.8-1.7-1.9-4.5-0.2-6.3
	c1.7-1.8,4.5-1.9,6.3-0.2c9.5,9,15,21.7,15,34.8C694.5,135.5,692.5,137.5,690,137.5"/>
<path id="path756" class="st32" d="M633.7,151.5c-2,0-4-0.6-5.7-1.7l-5.1-3.4c-1.1-0.7-1.4-2.2-0.7-3.3c0.7-1.1,2.2-1.4,3.3-0.7
	l5.1,3.4c1.9,1.2,4.4,1.2,6.2-0.1l3.8-2.7c3.6-2.5,8.4-2.5,12,0.1l3.5,2.5c1.8,1.3,4.3,1.4,6.2,0.1l5.5-3.7c1.1-0.7,2.6-0.4,3.3,0.7
	c0.7,1.1,0.4,2.6-0.7,3.3l-5.5,3.7c-3.6,2.4-8.3,2.3-11.7-0.2l-3.5-2.5c-1.9-1.4-4.5-1.4-6.4,0l-3.8,2.7
	C637.9,150.8,635.8,151.5,633.7,151.5"/>
<path id="path758" class="st32" d="M634,204.8c-1.2,0-2.2-0.8-2.4-2l-10.2-60.9c-0.2-1.3,0.7-2.6,2-2.8s2.6,0.7,2.8,2l10.2,60.9
	c0.2,1.3-0.7,2.6-2,2.8C634.2,204.8,634.1,204.8,634,204.8"/>
<path id="path760" class="st32" d="M659.2,204.8c-0.1,0-0.3,0-0.4,0c-1.3-0.2-2.2-1.5-2-2.8l10.5-60.7c0.2-1.3,1.5-2.2,2.8-2
	c1.3,0.2,2.2,1.5,2,2.8l-10.5,60.7C661.4,204,660.3,204.8,659.2,204.8"/>
<path id="path762" class="st4" d="M663.2,224.9h-33.4c-2.1,0-3.8-1.7-3.8-3.8v-16.7c0-2.1,1.7-3.8,3.8-3.8h33.4
	c2.1,0,3.8,1.7,3.8,3.8V221C667.1,223.1,665.3,224.9,663.2,224.9"/>
<path id="path764" class="st4" d="M648.1,234.2H645c-6.1,0-11.1-5-11.1-11.1v-11.5c0-6.1,5-11.1,11.1-11.1h3.1
	c6.1,0,11.1,5,11.1,11.1v11.5C659.2,229.2,654.2,234.2,648.1,234.2"/>
<path id="path766" class="st1" d="M626,210.3h41.1v-4.8H626V210.3"/>
<path id="path768" class="st1" d="M626,219.7h41.1v-4.8H626V219.7"/>
<path id="path770" class="st3" d="M646.8,64.7c-1.4,0-2.6-1.2-2.6-2.6V44.8c0-1.4,1.2-2.6,2.6-2.6c1.4,0,2.6,1.2,2.6,2.6v17.3
	C649.4,63.6,648.2,64.7,646.8,64.7"/>
<path id="path772" class="st3" d="M684.6,76.3c-0.7,0.1-1.4,0-2-0.4c-1.2-0.8-1.5-2.4-0.8-3.6l9.5-14.5c0.8-1.2,2.4-1.5,3.6-0.8
	c1.2,0.8,1.5,2.4,0.8,3.6l-9.5,14.5C685.9,75.8,685.3,76.1,684.6,76.3"/>
<path id="path774" class="st3" d="M721.4,94.9l-15.2,8.3c-1.3,0.7-2.8,0.2-3.5-1c-0.7-1.3-0.2-2.8,1-3.5l15.2-8.3
	c1.3-0.7,2.8-0.2,3.5,1C723.1,92.6,722.7,94.2,721.4,94.9"/>
<path id="path776" class="st3" d="M609.8,76.3c0.7,0.1,1.4,0,2-0.4c1.2-0.8,1.5-2.4,0.8-3.6L603,57.8c-0.8-1.2-2.4-1.5-3.6-0.8
	c-1.2,0.8-1.5,2.4-0.8,3.6l9.5,14.5C608.5,75.8,609.1,76.1,609.8,76.3"/>
<path id="path778" class="st3" d="M573,94.9l15.2,8.3c1.3,0.7,2.8,0.2,3.5-1c0.7-1.3,0.2-2.8-1-3.5l-15.2-8.3
	c-1.3-0.7-2.8-0.2-3.5,1C571.3,92.6,571.8,94.2,573,94.9"/>
</svg>
